# xmcd CD database file
#
# Track frame offsets:
#	150
#	13142
#	29442
#	41842
#	58475
#	75080
#	90087
#	109382
#	121967
#	134832
#	150825
#	168170
#
# Disc length: 2446 seconds
#
# Revision: 0
# Processed by: cddbd v1.5.2PL0 Copyright (c) Steve Scherf et al.
# Submitted via: CDex 1.51
#
DISCID=92098c0c
DTITLE=Various Artist - Country's Greatest Hits of the 80's and 90's (2)
DYEAR=2003
DGENRE=Country
TTITLE0=Lifestyles of the Not So Rich and Famous - Tracy Byrd
TTITLE1=Pickup Man - Joe Diffie
TTITLE2=When You Walk in the Room - Pam Tillis
TTITLE3=Love a Little Stronger - Diamond Rio
TTITLE4=Every Once in a While - BlackHawk
TTITLE5=I Didn't Know My Own Strength - Lorrie Morgan
TTITLE6=I'm Holding My Own - Lee Roy Parnell
TTITLE7=There Ain't Nothing Wrong With The Radio - Aaron Tippin
TTITLE8=If Bubba Can Dance (I Can Too) - Shenandoah
TTITLE9=Reno - Doug Supernaw
TTITLE10=Come Next Monday - K.T. Olsin
TTITLE11=Tequila Talkin' - Lonestar
EXTD=YEAR: 2003
EXTT0=
EXTT1=
EXTT2=
EXTT3=
EXTT4=
EXTT5=
EXTT6=
EXTT7=
EXTT8=
EXTT9=
EXTT10=
EXTT11=
PLAYORDER=
